<svg xmlns="http://www.w3.org/2000/svg" width="48.302" height="53.291" viewBox="0 0 48.302 53.291">
  <g id="Group_1692" data-name="Group 1692" transform="translate(-453 -202.902)">
    <path id="Path_6100" data-name="Path 6100" d="M519.368,420.325a15.7,15.7,0,0,1-7.535-1.914l-6.089,6.089a24.16,24.16,0,0,0,27.088.109l-6.106-6.106A15.7,15.7,0,0,1,519.368,420.325Z" transform="translate(-42.217 -172.515)" fill="#ffaab9"/>
    <path id="Path_6101" data-name="Path 6101" d="M551.144,408.944l-2.392-2.392a12.581,12.581,0,0,1-10.118-.083l-2.384,2.384a15.779,15.779,0,0,0,14.894.091Z" transform="translate(-66.634 -162.957)" fill="#ff8097"/>
    <path id="Path_6102" data-name="Path 6102" d="M605.969,237.308l-3.65,7.573a15.768,15.768,0,0,1,1.706,28.666l6.106,6.106a24.158,24.158,0,0,0-4.162-42.345Z" transform="translate(-119.515 -27.559)" fill="#d79ad7"/>
    <path id="Path_6103" data-name="Path 6103" d="M461.383,252.151a15.769,15.769,0,0,1,21.421-14.72l3.65-7.573a24.155,24.155,0,0,0-22.926,42.236l6.089-6.089A15.764,15.764,0,0,1,461.383,252.151Z" transform="translate(0 -20.109)" fill="#9fdfcd"/>
    <path id="Path_6104" data-name="Path 6104" d="M606.854,289.969a15.771,15.771,0,0,0-10.116-14.72l-1.392,2.888a12.577,12.577,0,0,1,.706,23.387l2.392,2.392A15.763,15.763,0,0,0,606.854,289.969Z" transform="translate(-113.934 -57.928)" fill="#c776c7"/>
    <path id="Path_6105" data-name="Path 6105" d="M510.768,270a15.77,15.77,0,0,0-7.535,29.622l2.384-2.384a12.576,12.576,0,0,1,9.412-23.3l1.392-2.888A15.724,15.724,0,0,0,510.768,270Z" transform="translate(-33.617 -53.726)" fill="#88c6b4"/>
    <path id="Path_6106" data-name="Path 6106" d="M22.521,8.9A30.049,30.049,0,0,0,0,.023L2.064,27.136Z" transform="matrix(0.998, 0.07, -0.07, 0.998, 476.832, 202.902)" fill="#f3be18"/>
  </g>
</svg>
