<svg xmlns="http://www.w3.org/2000/svg" width="31.39" height="24.98" viewBox="0 0 31.39 24.98">
  <g id="home_1_" data-name="home (1)" transform="translate(0.001 -46.994)">
    <g id="Group_1652" data-name="Group 1652" transform="translate(-0.001 46.994)">
      <path id="Path_6078" data-name="Path 6078" d="M76.913,120.939l-11.2,9.229a.265.265,0,0,1-.01.058.266.266,0,0,0-.01.058v9.345a1.264,1.264,0,0,0,1.246,1.246H74.42V133.4h4.985v7.477h7.476a1.266,1.266,0,0,0,1.247-1.247v-9.345a.274.274,0,0,0-.02-.116Z" transform="translate(-61.218 -115.896)" fill="#fff"/>
      <path id="Path_6079" data-name="Path 6079" d="M31.173,59.163l-4.264-3.544V47.676a.6.6,0,0,0-.623-.623H22.548a.6.6,0,0,0-.623.623v3.8L17.174,47.5a2.415,2.415,0,0,0-2.959,0l-14,11.663A.566.566,0,0,0,0,59.581a.63.63,0,0,0,.136.458L1.345,61.48a.664.664,0,0,0,.409.214.724.724,0,0,0,.467-.136L15.694,50.323,29.168,61.558a.6.6,0,0,0,.409.136h.059a.665.665,0,0,0,.409-.214l1.207-1.441a.63.63,0,0,0,.136-.458A.567.567,0,0,0,31.173,59.163Z" transform="translate(0.001 -46.994)" fill="#fff"/>
    </g>
  </g>
</svg>
